HIERARCHY
ROOT hip
{
  OFFSET 0.0 0.0 0.0
  CHANNELS 6 Xposition Yposition Zposition Zrotation Yrotation Xrotation
  JOINT abdomen
  {
    OFFSET 0.0 20.6881 -0.73152
    CHANNELS 3 Zrotation Xrotation Yrotation
    JOINT chest
    {
      OFFSET 0.0 11.7043 -0.48768
      CHANNELS 3 Zrotation Xrotation Yrotation
      JOINT neck
      {
        OFFSET 0.0 22.1894 -2.19456
        CHANNELS 3 Zrotation Xrotation Yrotation
        JOINT head
        {
          OFFSET -0.24384 7.07133 1.2192
          CHANNELS 3 Zrotation Xrotation Yrotation
          JOINT leftEye
          {
            OFFSET 4.14528 8.04674 8.04672
            CHANNELS 3 Zrotation Xrotation Yrotation
            End Site
            {
              OFFSET 1.0 0.0 0.0
            }
          }
          JOINT rightEye
          {
            OFFSET -3.6576 8.04674 8.04672
            CHANNELS 3 Zrotation Xrotation Yrotation
            End Site
            {
              OFFSET 1.0 0.0 0.0
            }
          }
        }
      }
      JOINT rCollar
      {
        OFFSET -2.68224 19.2634 -4.8768
        CHANNELS 3 Zrotation Xrotation Yrotation
        JOINT rShldr
        {
          OFFSET -8.77824 -1.95073 1.46304
          CHANNELS 3 Zrotation Xrotation Yrotation
          JOINT rForeArm
          {
            OFFSET -28.1742 -1.7115 0.48768
            CHANNELS 3 Zrotation Xrotation Yrotation
            JOINT rHand
            {
              OFFSET -22.5879 0.773209 7.07136
              CHANNELS 3 Zrotation Xrotation Yrotation
              JOINT rThumb1
              {
                OFFSET -1.2192 -0.487915 3.41376
                CHANNELS 3 Zrotation Xrotation Yrotation
                JOINT rThumb2
                {
                  OFFSET -3.37035 -0.52449 3.41376
                  CHANNELS 3 Zrotation Xrotation Yrotation
                  End Site
                  {
                    OFFSET -1.78271 -1.18214 1.43049
                  }
                }
              }
              JOINT rIndex1
              {
                OFFSET -7.75947 0.938293 5.60832
                CHANNELS 3 Zrotation Xrotation Yrotation
                JOINT rIndex2
                {
                  OFFSET -2.54057 -0.884171 1.56538
                  CHANNELS 3 Zrotation Xrotation Yrotation
                  End Site
                  {
                    OFFSET -1.62519 -0.234802 1.16502
                  }
                }
              }
              JOINT rMid1
              {
                OFFSET -8.24714 1.18213 3.41376
                CHANNELS 3 Zrotation Xrotation Yrotation
                JOINT rMid2
                {
                  OFFSET -3.10165 -0.590103 1.0647
                  CHANNELS 3 Zrotation Xrotation Yrotation
                  End Site
                  {
                    OFFSET -2.48547 -0.328903 0.83742
                  }
                }
              }
              JOINT rRing1
              {
                OFFSET -8.82822 0.546677 1.51678
                CHANNELS 3 Zrotation Xrotation Yrotation
                JOINT rRing2
                {
                  OFFSET -2.60934 -0.819778 -0.0198488
                  CHANNELS 3 Zrotation Xrotation Yrotation
                  End Site
                  {
                    OFFSET -2.33842 -0.294052 0.168128
                  }
                }
              }
              JOINT rPinky1
              {
                OFFSET -8.27202 -0.0477905 -0.4584
                CHANNELS 3 Zrotation Xrotation Yrotation
                JOINT rPinky2
                {
                  OFFSET -1.82734 -0.647385 -0.700984
                  CHANNELS 3 Zrotation Xrotation Yrotation
                  End Site
                  {
                    OFFSET -1.69225 -0.51767 -0.607171
                  }
                }
              }
            }
          }
        }
      }
      JOINT lCollar
      {
        OFFSET 2.68224 19.2634 -4.8768
        CHANNELS 3 Zrotation Xrotation Yrotation
        JOINT lShldr
        {
          OFFSET 8.77824 -1.95073 1.46304
          CHANNELS 3 Zrotation Xrotation Yrotation
          JOINT lForeArm
          {
            OFFSET 28.1742 -1.7115 0.48768
            CHANNELS 3 Zrotation Xrotation Yrotation
            JOINT lHand
            {
              OFFSET 22.5879 0.773209 7.07136
              CHANNELS 3 Zrotation Xrotation Yrotation
              JOINT lThumb1
              {
                OFFSET 1.2192 -0.487915 3.41376
                CHANNELS 3 Zrotation Xrotation Yrotation
                JOINT lThumb2
                {
                  OFFSET 3.37035 -0.52449 3.41376
                  CHANNELS 3 Zrotation Xrotation Yrotation
                  End Site
                  {
                    OFFSET 1.78271 -1.18214 1.43049
                  }
                }
              }
              JOINT lIndex1
              {
                OFFSET 7.75947 0.938293 5.60832
                CHANNELS 3 Zrotation Xrotation Yrotation
                JOINT lIndex2
                {
                  OFFSET 2.54057 -0.884171 1.56538
                  CHANNELS 3 Zrotation Xrotation Yrotation
                  End Site
                  {
                    OFFSET 1.62519 -0.234802 1.16502
                  }
                }
              }
              JOINT lMid1
              {
                OFFSET 8.24714 1.18213 3.41376
                CHANNELS 3 Zrotation Xrotation Yrotation
                JOINT lMid2
                {
                  OFFSET 3.10165 -0.590103 1.0647
                  CHANNELS 3 Zrotation Xrotation Yrotation
                  End Site
                  {
                    OFFSET 2.48547 -0.328903 0.83742
                  }
                }
              }
              JOINT lRing1
              {
                OFFSET 8.82822 0.546677 1.51678
                CHANNELS 3 Zrotation Xrotation Yrotation
                JOINT lRing2
                {
                  OFFSET 2.60934 -0.819778 -0.0198488
                  CHANNELS 3 Zrotation Xrotation Yrotation
                  End Site
                  {
                    OFFSET 2.33842 -0.294052 0.168128
                  }
                }
              }
              JOINT lPinky1
              {
                OFFSET 8.27202 -0.0477905 -0.4584
                CHANNELS 3 Zrotation Xrotation Yrotation
                JOINT lPinky2
                {
                  OFFSET 1.82734 -0.647385 -0.700984
                  CHANNELS 3 Zrotation Xrotation Yrotation
                  End Site
                  {
                    OFFSET 1.69225 -0.51767 -0.607171
                  }
                }
              }
            }
          }
        }
      }
    }
  }
  JOINT rButtock
  {
    OFFSET -8.77824 4.35084 1.2192
    CHANNELS 3 Zrotation Xrotation Yrotation
    JOINT rThigh
    {
      OFFSET 0.0 -1.70687 -2.19456
      CHANNELS 3 Zrotation Xrotation Yrotation
      JOINT rShin
      {
        OFFSET 0.0 -36.8199 0.73152
        CHANNELS 3 Zrotation Xrotation Yrotation
        JOINT rFoot
        {
          OFFSET 0.73152 -45.1104 -5.12064
          CHANNELS 3 Zrotation Xrotation Yrotation
          End Site
          {
            OFFSET -1.1221 -3.69964 12.103
          }
        }
      }
    }
  }
  JOINT lButtock
  {
    OFFSET 8.77824 4.35084 1.2192
    CHANNELS 3 Zrotation Xrotation Yrotation
    JOINT lThigh
    {
      OFFSET 0.0 -1.70687 -2.19456
      CHANNELS 3 Zrotation Xrotation Yrotation
      JOINT lShin
      {
        OFFSET 0.0 -36.8199 0.73152
        CHANNELS 3 Zrotation Xrotation Yrotation
        JOINT lFoot
        {
          OFFSET -0.73152 -45.1104 -5.12064
          CHANNELS 3 Zrotation Xrotation Yrotation
          End Site
          {
            OFFSET 1.1221 -3.69964 12.103
          }
        }
      }
    }
  }
}
MOTION
Frames: 6
Frame Time: 0.00833333
-10.05857 86.0898 39.693 -10.652 13.6982 -11.9605 7.71158 9.74647 18.8646 -8.40919 -3.70013 5.25276 7.67217 -5.25195 -6.55395 -6.22294 -9.427 -16.4415 -0.0 0.0 0.0 -0.0 0.0 0.0 -9.7921e-15 1.14222e-13 -1.50607e-13 69.5403 0.549035 2.14326 -15.9043 -8.59889 29.4702 -0.119298 -9.80876 -1.39226 3.24147e-10 1.0542e-09 -1.12936e-09 5.66749e-10 1.80552e-09 -1.95177e-09 3.24157e-10 1.0542e-09 -1.12937e-09 7.73091 5.47488 0.417314 3.24149e-10 1.0542e-09 -1.12936e-09 2.90554 0.965183 0.102902 3.24159e-10 1.0542e-09 -1.12936e-09 10.2786 0.731801 0.0259123 3.24149e-10 1.05419e-09 -1.12935e-09 2.22167 -0.733487 -0.20892 -9.888e-15 1.14181e-13 -1.50778e-13 -72.058 23.8819 18.887 14.1161 -7.04839 -25.7884 0.221394 -13.2853 1.90165 1.16639e-11 7.56295e-10 5.57508e-11 2.26447e-11 1.30977e-09 9.54724e-11 1.16562e-11 7.56297e-10 5.57637e-11 -7.73091 5.47488 -0.417314 1.16643e-11 7.56295e-10 5.57508e-11 -2.90554 0.965183 -0.102902 1.16509e-11 7.56295e-10 5.57591e-11 -10.2786 0.731801 -0.0259123 1.16687e-11 7.56297e-10 5.57523e-11 -2.22167 -0.733487 0.20892 -2.03217e-16 0.0 -3.88251e-19 13.146 4.33557 -6.74804 -0.0415403 18.6919 0.471287 -4.06649 -5.91076 -20.3225 2.03217e-16 0.0 3.88251e-19 18.6607 -49.7616 10.5727 0.474325 44.4939 -0.54542 0.716723 5.03605 9.5561
-10.078009999999999 86.3392 40.256 -10.6122 13.6013 -11.7683 7.45772 9.4507 19.1507 -8.56735 -3.50968 5.3297 7.59241 -5.27928 -6.56978 -6.19097 -9.31908 -16.4373 -0.0 0.0 0.0 -0.0 0.0 0.0 -4.14731e-14 1.86144e-13 -3.44505e-13 69.1104 0.521461 2.50573 -16.0923 -8.77363 29.8671 -0.127131 -10.1189 -1.43722 -2.88572e-10 2.76321e-09 -1.02457e-09 -4.95285e-10 4.76886e-09 -1.77188e-09 -2.88563e-10 2.76322e-09 -1.02457e-09 7.73091 5.47488 0.417314 -2.8857e-10 2.76321e-09 -1.02456e-09 2.90554 0.965183 0.102902 -2.88556e-10 2.76321e-09 -1.02456e-09 10.2786 0.731801 0.0259123 -2.88567e-10 2.76321e-09 -1.02456e-09 2.22167 -0.733487 -0.20892 -4.15717e-14 1.86104e-13 -3.44693e-13 -72.1075 23.2493 18.9945 14.1192 -7.05099 -25.7946 0.215668 -13.1153 1.87644 -4.08926e-11 9.20791e-10 4.88568e-10 -7.10228e-11 1.59332e-09 8.44693e-10 -4.08981e-11 9.20791e-10 4.88575e-10 -7.73091 5.47488 -0.417314 -4.08935e-11 9.20789e-10 4.88568e-10 -2.90554 0.965183 -0.102902 -4.09033e-11 9.20789e-10 4.88572e-10 -10.2786 0.731801 -0.0259123 -4.08865e-11 9.20792e-10 4.88569e-10 -2.22167 -0.733487 0.20892 -2.03217e-16 0.0 -3.88251e-19 13.3337 5.57155 -6.41189 -0.0368229 16.6941 0.410144 -3.8313 -5.18622 -20.5964 2.03217e-16 0.0 3.88251e-19 17.6041 -50.3035 9.00583 0.391092 40.6142 -0.388331 0.572011 5.68879 11.5399
-10.10031 86.5758 40.80799999999999 -10.5676 13.4922 -11.5542 7.22055 9.15235 19.4314 -8.71167 -3.3512 5.40536 7.53615 -5.21391 -6.58085 -6.1727 -9.32197 -16.4281 -0.0 0.0 0.0 -0.0 0.0 0.0 -4.68651e-14 1.90851e-13 -4.32456e-13 68.7133 0.47141 2.85489 -16.2695 -8.94006 30.2438 -0.134387 -10.3949 -1.47731 -7.54218e-10 3.90741e-09 -8.83409e-10 -1.30201e-09 6.75334e-09 -1.5296e-09 -7.54209e-10 3.90742e-09 -8.83415e-10 7.73091 5.47488 0.417314 -7.54215e-10 3.90741e-09 -8.83405e-10 2.90554 0.965183 0.102902 -7.54201e-10 3.90741e-09 -8.83408e-10 10.2786 0.731801 0.0259123 -7.5421e-10 3.90741e-09 -8.83399e-10 2.22167 -0.733487 -0.20892 -4.69641e-14 1.90815e-13 -4.32655e-13 -72.1468 22.5842 19.0959 14.1055 -7.03996 -25.7666 0.211434 -12.987 1.85744 -2.04476e-10 9.46186e-10 7.57338e-10 -3.55923e-10 1.63647e-09 1.30899e-09 -2.0448e-10 9.46184e-10 7.57341e-10 -7.73091 5.47488 -0.417314 -2.04478e-10 9.46183e-10 7.57338e-10 -2.90554 0.965183 -0.102902 -2.04484e-10 9.46183e-10 7.57339e-10 -10.2786 0.731801 -0.0259123 -2.04469e-10 9.46186e-10 7.57338e-10 -2.22167 -0.733487 0.20892 -2.03217e-16 0.0 -3.88251e-19 13.5169 6.83748 -6.12923 -0.0311845 14.6416 0.351269 -3.56781 -4.45615 -20.786 2.03217e-16 0.0 3.88251e-19 16.6748 -51.0015 7.48438 0.336289 37.2724 -0.266055 0.419887 6.1729 13.9098
-10.11318 86.7857 41.354 -10.4916 13.387 -11.3133 6.97407 8.83105 19.7077 -8.82633 -3.22576 5.4808 7.45932 -5.14169 -6.59626 -6.11147 -9.33118 -16.4199 -0.0 0.0 0.0 -0.0 0.0 0.0 -1.05921e-14 8.44713e-14 -3.56789e-13 68.3428 0.386621 3.19947 -16.4302 -9.09259 30.5874 -0.139494 -10.5737 -1.50338 -1.02191e-09 4.22958e-09 -7.18107e-10 -1.76439e-09 7.31097e-09 -1.24672e-09 -1.0219e-09 4.22958e-09 -7.18113e-10 7.73091 5.47488 0.417314 -1.02191e-09 4.22958e-09 -7.18105e-10 2.90554 0.965183 0.102902 -1.0219e-09 4.22958e-09 -7.18106e-10 10.2786 0.731801 0.0259123 -1.02191e-09 4.22957e-09 -7.18099e-10 2.22167 -0.733487 -0.20892 -1.06908e-14 8.44453e-14 -3.56992e-13 -72.1798 21.8623 19.1954 14.073 -7.0136 -25.7012 0.209448 -12.9261 1.84843 -5.78098e-10 7.52654e-10 7.40139e-10 -1.00257e-09 1.30115e-09 1.27646e-09 -5.78101e-10 7.5265e-10 7.40143e-10 -7.73091 5.47488 -0.417314 -5.78101e-10 7.5265e-10 7.40139e-10 -2.90554 0.965183 -0.102902 -5.78104e-10 7.52649e-10 7.40138e-10 -10.2786 0.731801 -0.0259123 -5.7809e-10 7.52652e-10 7.40135e-10 -2.22167 -0.733487 0.20892 -2.03217e-16 0.0 -3.88251e-19 13.6846 8.16116 -5.89667 -0.0223733 12.4575 0.29039 -3.26513 -3.68536 -20.8771 2.03217e-16 0.0 3.88251e-19 15.7939 -51.9257 5.72386 0.296285 34.518 -0.164082 0.218159 6.60775 17.3541
-10.12769 86.9604 41.897999999999996 -10.4197 13.263 -11.0694 6.72422 8.47828 19.9819 -8.92214 -3.12384 5.55655 7.38239 -5.04393 -6.60679 -6.02666 -9.38091 -16.401 -0.0 0.0 0.0 -0.0 0.0 0.0 5.54619e-14 -1.03363e-13 -1.72241e-13 68.0028 0.270303 3.53436 -16.5786 -9.23539 30.9058 -0.1431 -10.6912 -1.52058 -1.21092e-09 4.07672e-09 -4.84862e-10 -2.08961e-09 7.04457e-09 -8.47366e-10 -1.21091e-09 4.07672e-09 -4.84868e-10 7.73091 5.47488 0.417314 -1.21092e-09 4.07673e-09 -4.84862e-10 2.90554 0.965183 0.102902 -1.21091e-09 4.07672e-09 -4.84862e-10 10.2786 0.731801 0.0259123 -1.21092e-09 4.07672e-09 -4.84856e-10 2.22167 -0.733487 -0.20892 5.53643e-14 -1.03374e-13 -1.72446e-13 -72.2045 21.097 19.2952 14.0233 -6.97316 -25.6011 0.208611 -12.9004 1.84463 -1.12133e-09 3.82419e-10 5.51259e-10 -1.94179e-09 6.60221e-10 9.45353e-10 -1.12133e-09 3.82414e-10 5.51265e-10 -7.73091 5.47488 -0.417314 -1.12134e-09 3.82415e-10 5.51259e-10 -2.90554 0.965183 -0.102902 -1.12133e-09 3.82414e-10 5.51256e-10 -10.2786 0.731801 -0.0259123 -1.12132e-09 3.82417e-10 5.51249e-10 -2.22167 -0.733487 0.20892 -2.03217e-16 0.0 -3.88251e-19 13.841 9.52367 -5.695 -0.0133827 10.1529 0.226382 -2.92723 -2.86287 -20.897 2.03217e-16 0.0 3.88251e-19 14.8672 -52.9964 3.67413 0.263545 32.2016 -0.0733905 -0.0516479 6.96047 21.6367
-10.145109999999999 87.0979 42.447900000000004 -10.3683 13.1312 -10.8371 6.52504 8.14639 20.2496 -9.02609 -3.05013 5.62978 7.38918 -4.74146 -6.59905 -6.03083 -9.68076 -16.3666 -0.0 0.0 0.0 -0.0 0.0 0.0 1.25614e-13 -2.96166e-13 3.24811e-14 67.7058 0.147747 3.84375 -16.7257 -9.3789 31.2215 -0.147743 -10.8623 -1.54551 -1.34627e-09 3.76733e-09 -1.89035e-10 -2.32262e-09 6.51004e-09 -3.39435e-10 -1.34626e-09 3.76733e-09 -1.89042e-10 7.73091 5.47488 0.417314 -1.34627e-09 3.76734e-09 -1.89037e-10 2.90554 0.965183 0.102902 -1.34626e-09 3.76733e-09 -1.89036e-10 10.2786 0.731801 0.0259123 -1.34627e-09 3.76733e-09 -1.89031e-10 2.22167 -0.733487 -0.20892 1.25522e-13 -2.96163e-13 3.22776e-14 -72.2135 20.3334 19.3862 13.9591 -6.92131 -25.4721 0.207796 -12.8762 1.84104 -1.64172e-09 -1.65755e-11 3.79306e-10 -2.84181e-09 -3.03787e-11 6.43741e-10 -1.64172e-09 -1.65816e-11 3.79315e-10 -7.73091 5.47488 -0.417314 -1.64173e-09 -1.65792e-11 3.79306e-10 -2.90554 0.965183 -0.102902 -1.64172e-09 -1.65816e-11 3.79302e-10 -10.2786 0.731801 -0.0259123 -1.64171e-09 -1.65784e-11 3.7929e-10 -2.22167 -0.733487 0.20892 -2.03217e-16 0.0 -3.88251e-19 14.0196 10.8754 -5.54698 -0.00708803 7.89259 0.168891 -2.58793 -2.07176 -20.859 2.03217e-16 0.0 3.88251e-19 14.0591 -54.1218 1.94807 0.238895 30.324 -0.00609067 -0.221126 6.96602 25.3762
